<mxfile host="65bd71144e" linkTarget="_blank" scale="1" border="0">
    <diagram id="QskkoMAm8eNEaI13tsmw" name="Page-1">
        <mxGraphModel dx="2040" dy="2198" grid="1" gridSize="10" guides="1" tooltips="1" connect="1" arrows="1" fold="1" page="1" pageScale="1" pageWidth="850" pageHeight="1100" math="0" shadow="0">
            <root>
                <mxCell id="0"/>
                <mxCell id="1" parent="0"/>
                <mxCell id="47" style="edgeStyle=orthogonalEdgeStyle;html=1;entryX=0.5;entryY=0;entryDx=0;entryDy=0;fontColor=#CCCCCC;endArrow=none;endFill=0;" edge="1" parent="1" source="9" target="43">
                    <mxGeometry relative="1" as="geometry"/>
                </mxCell>
                <mxCell id="48" style="edgeStyle=orthogonalEdgeStyle;html=1;exitX=0.25;exitY=1;exitDx=0;exitDy=0;entryX=0.75;entryY=0;entryDx=0;entryDy=0;fontColor=#CCCCCC;endArrow=none;endFill=0;" edge="1" parent="1" source="9" target="22">
                    <mxGeometry relative="1" as="geometry"/>
                </mxCell>
                <object label="ApiCaller" hedietLinkedDataV1_path="../../ApiCaller.h" id="9">
                    <mxCell style="whiteSpace=wrap;html=1;" parent="1" vertex="1">
                        <mxGeometry x="900" y="80" width="160" height="60" as="geometry"/>
                    </mxCell>
                </object>
                <mxCell id="29" style="edgeStyle=none;html=1;endArrow=none;endFill=0;" edge="1" parent="1" source="10" target="13">
                    <mxGeometry relative="1" as="geometry"/>
                </mxCell>
                <mxCell id="32" value="" style="edgeStyle=none;html=1;endArrow=none;endFill=0;" edge="1" parent="1" source="10" target="21">
                    <mxGeometry relative="1" as="geometry"/>
                </mxCell>
                <mxCell id="36" value="" style="edgeStyle=none;html=1;endArrow=none;endFill=0;" edge="1" parent="1" source="10" target="21">
                    <mxGeometry relative="1" as="geometry"/>
                </mxCell>
                <object label="Balance" hedietLinkedDataV1_path="../../Balance.h" id="10">
                    <mxCell style="whiteSpace=wrap;html=1;" parent="1" vertex="1">
                        <mxGeometry x="1290" y="100" width="120" height="60" as="geometry"/>
                    </mxCell>
                </object>
                <object label="Base" hedietLinkedDataV1_path="../../Base.h" id="11">
                    <mxCell style="whiteSpace=wrap;html=1;" vertex="1" parent="1">
                        <mxGeometry x="900" y="-240" width="160" height="60" as="geometry"/>
                    </mxCell>
                </object>
                <mxCell id="49" style="edgeStyle=orthogonalEdgeStyle;html=1;entryX=0.5;entryY=0;entryDx=0;entryDy=0;fontColor=#CCCCCC;endArrow=none;endFill=0;" edge="1" parent="1" source="12" target="9">
                    <mxGeometry relative="1" as="geometry"/>
                </mxCell>
                <object label="BinanceApiCaller" hedietLinkedDataV1_path="../../BinanceApiCaller.h" id="12">
                    <mxCell style="whiteSpace=wrap;html=1;" vertex="1" parent="1">
                        <mxGeometry x="900" y="-50" width="160" height="60" as="geometry"/>
                    </mxCell>
                </object>
                <object label="CurrencyPair" hedietLinkedDataV1_path="../../CurrencyPair.h" id="13">
                    <mxCell style="whiteSpace=wrap;html=1;" vertex="1" parent="1">
                        <mxGeometry x="1290" y="260" width="120" height="60" as="geometry"/>
                    </mxCell>
                </object>
                <mxCell id="39" style="edgeStyle=orthogonalEdgeStyle;html=1;entryX=0.25;entryY=0;entryDx=0;entryDy=0;endArrow=none;endFill=0;exitX=0.75;exitY=1;exitDx=0;exitDy=0;" edge="1" parent="1" source="14" target="22">
                    <mxGeometry relative="1" as="geometry"/>
                </mxCell>
                <mxCell id="40" style="edgeStyle=orthogonalEdgeStyle;html=1;exitX=0.25;exitY=1;exitDx=0;exitDy=0;entryX=0.5;entryY=0;entryDx=0;entryDy=0;endArrow=none;endFill=0;" edge="1" parent="1" source="14" target="23">
                    <mxGeometry relative="1" as="geometry"/>
                </mxCell>
                <object label="ESP32Clock" hedietLinkedDataV1_path="../../ESP32Clock.h" id="14">
                    <mxCell style="whiteSpace=wrap;html=1;" vertex="1" parent="1">
                        <mxGeometry x="550" y="80" width="160" height="60" as="geometry"/>
                    </mxCell>
                </object>
                <object label="JsonParser" hedietLinkedDataV1_path="../../JsonParser.h" id="16">
                    <mxCell style="whiteSpace=wrap;html=1;" vertex="1" parent="1">
                        <mxGeometry x="510" y="540" width="160" height="60" as="geometry"/>
                    </mxCell>
                </object>
                <mxCell id="17" value="SDManager" style="whiteSpace=wrap;html=1;" vertex="1" parent="1">
                    <mxGeometry x="870" y="540" width="160" height="60" as="geometry"/>
                </mxCell>
                <mxCell id="19" value="SettingsManager" style="whiteSpace=wrap;html=1;" vertex="1" parent="1">
                    <mxGeometry x="690" y="540" width="160" height="60" as="geometry"/>
                </mxCell>
                <mxCell id="28" style="edgeStyle=none;html=1;entryX=0.5;entryY=0;entryDx=0;entryDy=0;endArrow=none;endFill=0;" edge="1" parent="1">
                    <mxGeometry relative="1" as="geometry">
                        <mxPoint x="1349" y="10" as="sourcePoint"/>
                        <mxPoint x="1349" y="100" as="targetPoint"/>
                    </mxGeometry>
                </mxCell>
                <mxCell id="37" value="" style="edgeStyle=none;html=1;endArrow=none;endFill=0;" edge="1" parent="1" source="21" target="10">
                    <mxGeometry relative="1" as="geometry"/>
                </mxCell>
                <mxCell id="21" value="Wallet" style="whiteSpace=wrap;html=1;" vertex="1" parent="1">
                    <mxGeometry x="1290" y="-50" width="120" height="60" as="geometry"/>
                </mxCell>
                <mxCell id="22" value="WiFiManager" style="whiteSpace=wrap;html=1;" vertex="1" parent="1">
                    <mxGeometry x="690" y="290" width="160" height="60" as="geometry"/>
                </mxCell>
                <mxCell id="23" value="WirelessUpdateManager" style="whiteSpace=wrap;html=1;" vertex="1" parent="1">
                    <mxGeometry x="510" y="290" width="160" height="60" as="geometry"/>
                </mxCell>
                <mxCell id="43" value="HTTPClient" style="whiteSpace=wrap;html=1;labelBorderColor=none;dashed=1;strokeColor=#999999;fontColor=#CCCCCC;" vertex="1" parent="1">
                    <mxGeometry x="900" y="290" width="160" height="60" as="geometry"/>
                </mxCell>
            </root>
        </mxGraphModel>
    </diagram>
</mxfile>